# xmcd CD database file
#
# Track frame offsets:
#	150
#	15885
#	37201
#	58628
#	75885
#	93873
#	111729
#	136521
#	151747
#	174900
#	194132
#	214315
#	231248
#
# Disc length: 3220 seconds
#
# Revision: 4
# Processed by: cddbd v1.5.2PL0 Copyright (c) Steve Scherf et al.
# Submitted via: CDex 1.70beta2
#
DISCID=a20c920d
DTITLE=Patrick Boland - The Invitation
DYEAR=2009
DGENRE=New Age
TTITLE0=All There Is Is This
TTITLE1=You Are What You're Looking For
TTITLE2=Awareness Is Ever There
TTITLE3=Be A Lamp unto Yourself
TTITLE4=Only The Sound
TTITLE5=The 'I Am' That You Are
TTITLE6=A Hole in a Flute
TTITLE7=Don't Disturb Your Mind
TTITLE8=The Fragrance of a Rose
TTITLE9=We Dance 'Round In A Ring
TTITLE10=We Are The Ocean And The Wave
TTITLE11=The Kingdom of Heaven Is Within
TTITLE12=You Can't Get There From Here
EXTD=YEAR: 2009
EXTT0=
EXTT1=
EXTT2=
EXTT3=
EXTT4=
EXTT5=
EXTT6=
EXTT7=
EXTT8=
EXTT9=
EXTT10=
EXTT11=
EXTT12=
PLAYORDER=
